HIERARCHY
ROOT Hips
{
 OFFSET 0.000000 0.000000 0.000000
 CHANNELS 6 Xposition Yposition Zposition Yrotation Xrotation Zrotation
 JOINT Chest
 {
  OFFSET 0.000000 9.581000 -0.001100
  CHANNELS 3 Yrotation Xrotation Zrotation
  JOINT Chest2
  {
   OFFSET 0.000000 9.561100 0.002200
   CHANNELS 3 Yrotation Xrotation Zrotation
   JOINT Chest3
   {
    OFFSET 0.000000 9.521100 0.000000
    CHANNELS 3 Yrotation Xrotation Zrotation
    JOINT Chest4
    {
     OFFSET 0.000000 9.511400 0.000000
     CHANNELS 3 Yrotation Xrotation Zrotation
     JOINT Neck
     {
      OFFSET 0.000000 14.375100 0.000000
      CHANNELS 3 Yrotation Xrotation Zrotation
      JOINT Head
      {
       OFFSET 0.000000 8.901200 0.004600
       CHANNELS 3 Yrotation Xrotation Zrotation
       End Site
       {
        OFFSET 0.000000 16.962200 0.002400
       }
      }
     }
     JOINT RightCollar
     {
      OFFSET -2.920100 9.518800 0.000000
      CHANNELS 3 Yrotation Xrotation Zrotation
      JOINT RightShoulder
      {
       OFFSET -13.664500 0.000000 0.000000
       CHANNELS 3 Yrotation Xrotation Zrotation
       JOINT RightElbow
       {
        OFFSET 0.000000 -29.999200 0.000000
        CHANNELS 3 Yrotation Xrotation Zrotation
        JOINT RightWrist
        {
         OFFSET 0.000000 -24.253600 0.000000
         CHANNELS 3 Yrotation Xrotation Zrotation
         End Site
         {
          OFFSET 0.000000 -17.918900 0.000000
         }
        }
       }
      }
     }
     JOINT LeftCollar
     {
      OFFSET 2.920100 9.518800 0.000000
      CHANNELS 3 Yrotation Xrotation Zrotation
      JOINT LeftShoulder
      {
       OFFSET 13.664500 0.000000 0.000000
       CHANNELS 3 Yrotation Xrotation Zrotation
       JOINT LeftElbow
       {
        OFFSET 0.000000 -29.999200 0.000000
        CHANNELS 3 Yrotation Xrotation Zrotation
        JOINT LeftWrist
        {
         OFFSET 0.000000 -24.253600 0.000000
         CHANNELS 3 Yrotation Xrotation Zrotation
         End Site
         {
          OFFSET 0.000000 -17.918900 0.000000
         }
        }
       }
      }
     }
    }
   }
  }
 }
 JOINT RightHip
 {
  OFFSET -7.797300 0.005300 0.000500
  CHANNELS 3 Yrotation Xrotation Zrotation
  JOINT RightKnee
  {
   OFFSET 0.000000 -40.663400 -0.000500
   CHANNELS 3 Yrotation Xrotation Zrotation
   JOINT RightAnkle
   {
    OFFSET 0.000000 -39.523700 -0.000900
    CHANNELS 3 Yrotation Xrotation Zrotation
    JOINT RightToe
    {
     OFFSET 0.000000 -6.418000 14.485300
     CHANNELS 3 Yrotation Xrotation Zrotation
     End Site
     {
      OFFSET 0.000000 -1.465200 6.326400
     }
    }
   }
  }
 }
 JOINT LeftHip
 {
  OFFSET 7.797300 0.005300 0.000500
  CHANNELS 3 Yrotation Xrotation Zrotation
  JOINT LeftKnee
  {
   OFFSET 0.000000 -40.663400 -0.000500
   CHANNELS 3 Yrotation Xrotation Zrotation
   JOINT LeftAnkle
   {
    OFFSET 0.000000 -39.523700 -0.000900
    CHANNELS 3 Yrotation Xrotation Zrotation
    JOINT LeftToe
    {
     OFFSET 0.000000 -6.418000 14.485300
     CHANNELS 3 Yrotation Xrotation Zrotation
     End Site
     {
      OFFSET 0.000000 -1.465200 6.326400
     }
    }
   }
  }
 }
}
MOTION
Frames: 16
Frame Time: 0.008333
0.000000 86.422400 0.000000 0.000000 -5.767877 0.000000 0.000000 11.653817 0.000000 0.000000 -5.885947 0.000000 0.000000 -0.000000 0.000000 0.000000 -0.000000 0.000000 0.000000 12.528835 0.000000 0.000000 0.711642 0.000000 0.000000 -0.000000 0.000000 0.000000 0.000000 -90.000000 0.000000 -2.309062 0.000000 0.000000 2.309062 0.000000 0.000000 -0.000000 0.000000 0.000000 -0.000000 90.000000 0.000000 -2.309062 0.000000 0.000000 2.309062 0.000000 0.000000 8.520406 0.000000 0.000000 1.905762 0.000000 -0.000000 -4.658285 0.000000 0.000000 -0.000000 0.000000 0.000000 8.520406 0.000000 0.000000 1.905762 0.000000 -0.000000 -4.658285 0.000000 0.000000 -0.000000 0.000000
-2.463334 126.560667 22.358710 -165.050143 -31.891776 -4.551468 -2.834259 18.611051 -2.318795 -0.245214 2.095795 -0.206966 -0.389548 3.470287 -0.362453 -2.117052 15.944248 -1.876736 -0.535639 19.852527 1.995614 -1.024712 -4.686422 2.244349 -7.536045 -1.505185 -0.718263 -13.608979 -2.888530 -4.287525 -103.473565 -34.360841 132.400020 -17.921968 5.073908 -21.974885 -3.533057 -2.701026 2.347914 7.361574 -6.658755 8.762104 95.106823 -57.028970 -123.855223 11.810644 -13.617222 43.923010 5.222004 -55.582527 -10.858914 -147.734658 66.815513 -144.244386 5.136820 -16.056591 1.554417 -0.785270 0.751884 -0.351800 -12.569616 -44.123562 -7.201395 58.191124 87.321930 49.663398 0.821975 -12.402519 5.885912 -0.018368 -0.101212 -0.008120
-2.451676 126.559869 22.369117 -165.068366 -31.873051 -4.596140 -2.779151 18.592849 -2.260431 -0.158102 2.107097 -0.233723 -0.406678 3.487755 -0.359379 -2.093780 15.981993 -1.896366 -0.582585 19.830894 2.000579 -1.075738 -4.710173 2.260246 -7.496255 -1.558457 -0.705914 -13.503014 -2.904737 -4.266507 -103.397044 -34.355231 132.306147 -17.925991 5.070003 -22.011636 -3.550292 -2.715675 2.373814 7.433485 -6.578490 8.769019 95.136201 -57.046867 -123.838109 11.811879 -13.616651 43.978224 4.812099 -55.916476 -10.529917 -148.988918 67.003288 -145.160578 5.011796 -16.002324 1.481309 -0.315843 0.507437 -0.140997 -12.343507 -44.108891 -7.310728 57.733593 87.311467 49.347146 0.818736 -12.439755 5.936909 -0.029471 -0.048052 -0.013046
-2.443940 126.560785 22.378827 -165.079480 -31.872612 -4.623557 -2.602969 18.598951 -2.211433 -0.263316 2.112889 -0.210641 -0.404504 3.496889 -0.362102 -2.033092 16.038411 -1.933972 -0.629639 19.808610 1.999407 -1.125485 -4.734770 2.269687 -7.459144 -1.623672 -0.689347 -13.407248 -2.922357 -4.248207 -103.325552 -34.352889 132.227907 -17.922812 5.070351 -22.041131 -3.569315 -2.738105 2.400948 7.502421 -6.500071 8.777238 95.162453 -57.067676 -123.811483 11.817970 -13.616112 44.027257 4.457062 -56.219960 -10.273525 -150.249853 67.228340 -146.045630 5.150204 -16.083092 1.399154 -0.107664 0.422545 -0.047999 -12.083769 -44.065946 -7.460562 56.972650 87.287721 48.736632 0.802207 -12.460878 5.965543 -0.030320 -0.002632 -0.013433
-2.441679 126.561789 22.389954 -165.099545 -31.875834 -4.612633 -2.486492 18.614420 -2.211132 -0.259297 2.128301 -0.214026 -0.461581 3.488285 -0.342379 -1.966204 16.104149 -1.965995 -0.678445 19.783627 1.993584 -1.176061 -4.762399 2.274570 -7.426776 -1.701793 -0.667894 -13.321877 -2.942765 -4.229610 -103.265681 -34.360324 132.167494 -17.913730 5.074966 -22.067934 -3.593389 -2.769357 2.429121 7.571176 -6.427054 8.788731 95.178246 -57.086413 -123.775356 11.827361 -13.609374 44.069238 4.190717 -56.507031 -10.112113 -151.529131 67.500388 -146.922306 5.392661 -16.124736 1.281740 -0.000732 0.333075 -0.000329 -11.832515 -44.021562 -7.616714 56.015159 87.253580 47.894715 0.766092 -12.463095 5.990489 -0.018164 0.032838 -0.008052
-2.443701 126.566439 22.396000 -165.044149 -31.917354 -4.624207 -2.458112 18.673954 -2.231123 -0.234174 2.147574 -0.222298 -0.410251 3.536411 -0.363275 -1.997682 16.118675 -1.943938 -0.727117 19.754588 1.984112 -1.225639 -4.794621 2.275470 -7.400173 -1.788732 -0.645213 -13.241909 -2.966597 -4.205500 -103.220466 -34.380051 132.127318 -17.901631 5.083859 -22.096733 -3.655633 -2.829920 2.483308 7.676900 -6.334455 8.782716 95.178464 -57.099828 -123.727440 11.836781 -13.593105 44.106443 3.914647 -56.738397 -10.001837 -152.818601 67.827162 -147.800076 5.691550 -16.168026 1.139113 0.044409 0.293415 0.019757 -11.711569 -43.943170 -7.737712 54.981681 87.219175 46.916466 0.728818 -12.452111 6.007945 -0.001112 0.058360 -0.000492
-2.444419 126.573204 22.398194 -164.957414 -31.981649 -4.664540 -2.454495 18.759802 -2.238517 -0.231608 2.162394 -0.224360 -0.387507 3.571513 -0.375559 -1.988632 16.155509 -1.939569 -0.773017 19.720887 1.970810 -1.271300 -4.832351 2.271589 -7.375719 -1.881600 -0.626170 -13.161333 -2.993882 -4.176063 -103.191493 -34.409913 132.102819 -17.890404 5.089791 -22.126008 -3.662787 -2.861636 2.497576 7.726436 -6.291861 8.808324 95.162461 -57.109889 -123.667364 11.845685 -13.567102 44.139287 3.624184 -56.935038 -9.882111 -154.075977 68.214363 -148.648699 6.010179 -16.124787 0.978110 0.063434 0.244301 0.028203 -11.736334 -43.864136 -7.761024 54.310141 87.201589 46.216993 0.713472 -12.409463 6.006953 0.005271 0.039709 0.002338
-2.443559 126.576223 22.405307 -164.913976 -32.012175 -4.680778 -2.440052 18.805310 -2.245924 -0.212935 2.180859 -0.229311 -0.384387 3.595512 -0.378602 -1.969031 16.204558 -1.945387 -0.814934 19.683569 1.953014 -1.311615 -4.874422 2.261967 -7.351304 -1.978032 -0.614008 -13.070764 -3.021156 -4.145499 -103.184561 -34.445986 132.091179 -17.881667 5.090322 -22.154515 -3.665046 -2.895542 2.510816 7.779160 -6.258309 8.831431 95.125064 -57.116434 -123.597408 11.857607 -13.539871 44.166585 3.396020 -57.164151 -9.769278 -155.230788 68.659761 -149.411166 6.340544 -15.991129 0.791838 0.080591 0.213601 0.035816 -11.848065 -43.820453 -7.693877 53.347228 87.177483 45.151648 0.698201 -12.370013 6.031747 0.008742 0.033473 0.003876
-2.439297 126.577784 22.413181 -164.881831 -32.032380 -4.705783 -2.447979 18.832255 -2.238735 -0.164785 2.205160 -0.240808 -0.381838 3.618787 -0.381488 -1.952524 16.251540 -1.951134 -0.853542 19.645099 1.932635 -1.347844 -4.917793 2.248789 -7.376193 -2.068303 -0.577820 -12.921685 -3.056680 -4.140747 -103.197098 -34.485506 132.092985 -17.873509 5.087742 -22.181994 -3.681326 -2.938492 2.535581 7.857901 -6.217736 8.841675 95.059432 -57.117404 -123.518794 11.869499 -13.520142 44.189447 3.134473 -57.403620 -9.581799 -156.197509 69.155765 -150.026303 6.654406 -15.736809 0.569076 0.109835 0.185692 0.048796 -12.049718 -43.792128 -7.553416 52.307630 87.157523 43.969446 0.700954 -12.328480 6.046703 0.011178 0.027098 0.004955
-2.431325 126.578250 22.421087 -164.855846 -32.046170 -4.744689 -2.389556 18.864225 -2.202052 -0.173813 2.217629 -0.243693 -0.379286 3.640533 -0.384360 -1.936450 16.295224 -1.956975 -0.889359 19.606760 1.912844 -1.378165 -4.959649 2.258293 -7.328596 -2.158752 -0.591135 -12.847869 -3.069305 -4.092160 -103.221055 -34.527063 132.109924 -17.862966 5.081834 -22.202919 -3.695156 -2.976799 2.561348 7.940147 -6.179367 8.850489 94.972876 -57.110993 -123.437534 11.877397 -13.505842 44.211641 2.764391 -57.648961 -9.246372 -156.895531 69.697256 -150.443643 6.907278 -15.365457 0.297930 0.151831 0.168752 0.067440 -12.301953 -43.774539 -7.369177 51.358404 87.140512 42.864779 0.723099 -12.286616 6.038581 0.010547 0.017004 0.004675
-2.420314 126.578148 22.428326 -164.834710 -32.058868 -4.795683 -2.337659 18.894865 -2.157187 -0.174533 2.226462 -0.245008 -0.401376 3.641113 -0.376449 -1.898524 16.352872 -1.976336 -0.924341 19.562033 1.911981 -1.395074 -4.989059 2.294236 -7.274729 -2.239043 -0.606169 -12.781201 -3.074159 -4.041131 -103.252500 -34.566796 132.140715 -17.848226 5.075874 -22.210989 -3.703612 -3.010255 2.589144 8.019637 -6.139619 8.859659 94.879484 -57.098903 -123.362593 11.887473 -13.492379 44.235192 2.283277 -57.891441 -8.767427 -157.306538 70.277304 -150.638632 7.089080 -14.876185 -0.054510 0.202431 0.164947 0.089914 -12.555490 -43.759583 -7.177534 50.544782 87.128634 41.913760 0.744938 -12.249611 6.027010 0.006314 0.004587 0.002798
-2.404797 126.578086 22.433967 -164.816126 -32.073813 -4.870952 -2.231772 18.931760 -2.084974 -0.232892 2.226870 -0.230150 -0.406220 3.646293 -0.371470 -1.893609 16.370263 -1.980125 -0.942222 19.536373 1.920599 -1.411500 -5.003482 2.222844 -7.213373 -2.280063 -0.635272 -12.694508 -3.076926 -4.002028 -103.287876 -34.601472 132.180651 -17.830917 5.072303 -22.206850 -3.693573 -3.017607 2.597909 8.109688 -6.089173 8.863689 94.785628 -57.085207 -123.296741 11.901421 -13.479031 44.259563 1.739169 -58.123292 -8.199486 -157.471500 70.886702 -150.609623 7.183837 -14.283598 -0.530644 0.280769 0.188019 0.124748 -12.780417 -43.742222 -6.992641 49.997752 87.127107 41.270060 0.776750 -12.219849 6.017841 -0.000258 -0.005566 -0.000115
-2.393009 126.576185 22.442120 -164.814941 -32.075588 -4.909949 -2.184188 18.937810 -2.046582 -0.255820 2.230379 -0.221496 -0.372805 3.677342 -0.389604 -1.899812 16.369576 -1.967759 -0.950708 19.533001 1.879949 -1.438726 -5.044025 2.214027 -7.155665 -2.321744 -0.660404 -12.611509 -3.072002 -3.964787 -103.323505 -34.631716 132.226690 -17.816398 5.072592 -22.197549 -3.710993 -3.040837 2.618658 8.217444 -6.021644 8.861057 94.695843 -57.070677 -123.238750 11.916359 -13.467622 44.280142 1.270765 -58.352724 -7.695282 -157.421822 71.520642 -150.364786 7.271438 -13.564948 -1.137984 0.316196 0.202741 0.140523 -12.895457 -43.741662 -6.899989 49.515202 87.117702 40.741313 0.810668 -12.188205 6.010496 -0.006103 -0.012392 -0.002704
-2.386563 126.577169 22.445672 -164.798977 -32.112622 -4.933176 -2.161724 18.973050 -2.035136 -0.241955 2.245847 -0.222541 -0.368813 3.694267 -0.392714 -1.842068 16.437221 -1.994895 -1.003420 19.466743 1.900758 -1.470758 -5.093262 2.161172 -7.168226 -2.419893 -0.623280 -12.533220 -3.058409 -3.930280 -103.350266 -34.656989 132.274383 -17.807951 5.075776 -22.186835 -3.766816 -3.093093 2.682750 8.280117 -5.986412 8.869761 94.619407 -57.054361 -123.188496 11.928982 -13.456139 44.291769 0.865293 -58.521913 -7.272759 -157.183433 72.178618 -149.927288 7.334660 -12.744632 -1.873688 0.331184 0.211759 0.147209 -12.930766 -43.702320 -6.889074 49.071076 87.106526 40.282704 0.823490 -12.166875 6.023371 -0.008062 -0.015983 -0.003572
-2.385168 126.582008 22.443308 -164.800536 -32.194986 -4.928549 -2.142830 19.051935 -2.043682 -0.208145 2.253673 -0.239976 -0.385493 3.709668 -0.387285 -1.804314 16.467472 -2.003949 -1.033338 19.438394 1.898060 -1.496513 -5.126490 2.147648 -7.186576 -2.470394 -0.593974 -12.419095 -3.054875 -3.920154 -103.356864 -34.673250 132.315977 -17.802596 5.075876 -22.175171 -3.766656 -3.086208 2.713875 8.308740 -5.972397 8.882523 94.564690 -57.039060 -123.149733 11.935671 -13.438247 44.290955 0.560760 -58.619815 -6.944111 -156.767245 72.861181 -149.303852 7.373670 -11.842268 -2.699363 0.315065 0.215237 0.140058 -12.845527 -43.613374 -6.986078 49.059664 87.078600 40.319172 0.823149 -12.157559 6.033882 -0.011559 -0.021735 -0.005121
-2.385812 126.584124 22.445193 -164.790024 -32.244523 -4.913873 -2.139887 19.097378 -2.065875 -0.203363 2.253768 -0.249539 -0.354964 3.729359 -0.401259 -1.812334 16.474460 -1.989327 -1.043788 19.432502 1.878636 -1.516834 -5.147857 2.161360 -7.119579 -2.516399 -0.625885 -12.371440 -3.025324 -3.885688 -103.344719 -34.681353 132.345273 -17.794893 5.076647 -22.164963 -3.781344 -3.086634 2.735031 8.366219 -5.925455 8.893899 94.538757 -57.031312 -123.131174 11.940564 -13.414369 44.277715 0.310932 -58.723070 -6.697576 -156.128789 73.565225 -148.460690 7.390451 -10.890041 -3.564429 0.275373 0.224593 0.122436 -12.716957 -43.564318 -7.124777 49.224403 87.048717 40.560469 0.819223 -12.145757 6.038231 -0.012890 -0.020610 -0.005711
